# xmcd CD database file
#
# Track frame offsets:
#	183
#	10588
#	22530
#	35988
#	50273
#	63575
#	77995
#	90623
#	103840
#	118673
#	133755
#	147580
#	163278
#	176928
#	191775
#	203610
#	215833
#	229273
#	247653
#	265178
#	285685
#	306578
#	318573
#	330555
#
# Disc length: 4597 seconds
#
# Revision: 0
# Processed by: cddbd v1.5.2PL0 Copyright (c) Steve Scherf et al.
# Submitted via: CDex 1.70beta1
#
DISCID=6c11f318
DTITLE=Muggsy Spanier - Muggshot
DYEAR=1900
DGENRE=Jazz
TTITLE0=Mobile Blues
TTITLE1=Why Could'nt It Be Poor Little Me
TTITLE2=Bullfrog Blues
TTITLE3=Nobody's Sweetheart
TTITLE4=Ther'll Be Some Changes Made
TTITLE5=i've Found A New Baby
TTITLE6=Baby Won't You Please Come Home
TTITLE7=Friars Point Shuffle
TTITLE8=That's A Plenty
TTITLE9=Dallas Blues
TTITLE10=Royal Garden Blues
TTITLE11=The Darktown Strutters Ball
TTITLE12=I'll Be Glad When You're Dead You Rascal You
TTITLE13=Relaxin' At The Touro
TTITLE14=At Sundown When Love Is Calling Me Home
TTITLE15=Bluin' The Blues
TTITLE16=I Wish I Could Shimmy Like My Sister Kate
TTITLE17=Four Or Five Times
TTITLE18=China Boy
TTITLE19=Down To Steamboat Tennessee
TTITLE20=Sugar, That Sugar Baby Of Mine
TTITLE21=You're Bound To Look Like A Monkey
TTITLE22=Chicago
TTITLE23=Hesitatin' Blues
EXTD=
EXTT0=
EXTT1=
EXTT2=
EXTT3=
EXTT4=
EXTT5=
EXTT6=
EXTT7=
EXTT8=
EXTT9=
EXTT10=
EXTT11=
EXTT12=
EXTT13=
EXTT14=
EXTT15=
EXTT16=
EXTT17=
EXTT18=
EXTT19=
EXTT20=
EXTT21=
EXTT22=
EXTT23=
PLAYORDER=
